<svg width="146" height="356" viewBox="0 0 146 356" fill="none" xmlns="http://www.w3.org/2000/svg">
<path d="M39.3104 331.41L27.7706 331.41L27.7706 310.374L63.8911 310.374C64.5165 313.116 65.0169 316.326 65.3922 320.004C65.83 323.619 66.0489 326.954 66.0489 330.008C66.0489 337.176 65.2045 342.505 63.5158 345.996C61.7645 349.424 58.6059 351.824 54.04 353.195C49.4741 354.504 42.4689 355.159 33.0245 355.159C24.0178 355.159 17.2002 354.473 12.5718 353.102C7.94338 351.73 4.69097 349.268 2.81459 345.715C0.938195 342.1 -8.43253e-07 336.709 -1.15658e-06 329.541C-1.30915e-06 326.05 0.250184 322.466 0.750556 318.789C1.18838 315.111 1.6262 312.4 2.06403 310.654L13.3224 310.654C12.5093 317.137 12.1027 321.812 12.1027 324.679C12.1027 329.977 12.4467 333.592 13.1347 335.524C13.8227 337.457 15.5428 338.766 18.2948 339.451C20.9843 340.137 25.8942 340.48 33.0245 340.48C39.5293 340.48 44.189 340.261 47.0035 339.825C49.8181 339.327 51.7258 338.36 52.7265 336.927C53.7273 335.431 54.2276 332.969 54.2276 329.541C54.2276 328.045 54.1651 326.175 54.04 323.931L39.3104 323.931L39.3104 331.41Z" fill="#1E4A32"/>
<path d="M65.2983 267.739L42.6879 275.219L42.6879 284.568L65.2983 284.568L65.2983 299.06L0.750555 299.06L0.750554 272.601C0.750553 267.303 1.56365 263.313 3.18986 260.633C4.75352 257.953 7.00518 256.176 9.94486 255.304C12.8845 254.369 16.7937 253.901 21.6723 253.901C26.2382 253.901 30.1473 254.4 33.3997 255.397C36.5896 256.395 38.9351 258.42 40.4362 261.475L65.2983 252.499L65.2983 267.739ZM30.679 277.275C30.679 274.533 30.4601 272.601 30.0222 271.479C29.5844 270.294 28.8026 269.515 27.6767 269.141C26.4884 268.767 24.5182 268.58 21.7661 268.58C18.9515 268.58 16.9813 268.767 15.8555 269.141C14.6671 269.453 13.8853 270.201 13.51 271.385C13.0722 272.507 12.8533 274.439 12.8533 277.182L12.8533 284.568L30.679 284.568L30.679 277.275Z" fill="#1E4A32"/>
<path d="M66.0489 221.103C66.0489 228.895 65.1107 234.473 63.2343 237.839C61.2954 241.143 58.2306 243.231 54.04 244.103C49.7869 244.914 42.7817 245.319 33.0244 245.319C23.2672 245.319 16.2933 244.914 12.1027 244.103C7.84956 243.231 4.78479 241.143 2.9084 237.839C0.969464 234.473 -5.55596e-06 228.895 -5.89653e-06 221.103C-6.23982e-06 213.25 0.969463 207.671 2.9084 204.367C4.78479 201.001 7.81828 198.913 12.0089 198.103C16.1995 197.293 23.2047 196.888 33.0244 196.888C42.8442 196.888 49.8494 197.293 54.04 198.103C58.2306 198.913 61.2954 201.001 63.2343 204.367C65.1107 207.671 66.0489 213.25 66.0489 221.103ZM53.9462 221.103C53.9462 217.737 53.6022 215.493 52.9142 214.371C52.2262 213.187 50.6 212.439 48.0356 212.128C45.4712 211.816 40.4675 211.66 33.0244 211.66C25.5814 211.66 20.5777 211.816 18.0133 212.128C15.4489 212.439 13.8227 213.187 13.1347 214.371C12.4467 215.493 12.1027 217.737 12.1027 221.103C12.1027 224.469 12.4467 226.744 13.1347 227.928C13.8227 229.05 15.4489 229.767 18.0133 230.079C20.5777 230.39 25.5814 230.546 33.0244 230.546C40.4675 230.546 45.4712 230.39 48.0356 230.079C50.6 229.767 52.2262 229.05 52.9142 227.928C53.6022 226.744 53.9462 224.469 53.9462 221.103Z" fill="#1E4A32"/>
<path d="M65.2983 143.544L22.9858 151.772L22.9858 152.333L65.2983 160.561L65.2983 179.634L0.75055 191.788L0.750549 177.203L49.0676 169.443L49.0676 168.882L0.750549 159.719L0.750548 143.918L49.0676 134.569L49.0676 134.008L0.750547 126.715L0.750547 112.223L65.2983 124.471L65.2983 143.544Z" fill="#1E4A32"/>
<path d="M65.2983 95.5721L13.3224 95.5721L13.3224 110.718L0.750546 110.718L0.750544 65.7468L13.3224 65.7468L13.3224 80.9867L65.2983 80.9867L65.2983 95.5721Z" fill="#1E4A32"/>
<path d="M65.2983 26.9612L39.2165 26.9612L39.2165 44.1645L65.2983 44.1645L65.2983 58.7499L0.750544 58.7499L0.750544 44.1645L26.4571 44.1645L26.4571 26.9612L0.750543 26.9612L0.750542 12.3758L65.2983 12.3758L65.2983 26.9612Z" fill="#1E4A32"/>
<path d="M146 333.748C146 341.539 145.468 348.427 144.405 354.411L132.959 354.411C133.585 346.682 133.897 341.196 133.897 337.955C133.897 335.4 133.772 333.405 133.522 331.971C133.272 330.538 132.834 329.509 132.209 328.886C131.646 328.325 130.958 327.982 130.145 327.858C129.331 327.671 128.174 327.577 126.673 327.577C124.672 327.577 123.264 327.702 122.451 327.951C121.576 328.2 120.95 328.73 120.575 329.541C120.2 330.289 119.856 331.597 119.543 333.467L118.042 343.845C117.354 348.583 115.509 351.793 112.506 353.476C109.504 355.159 105.189 356 99.5594 356C94.1179 356 89.9585 355.096 87.0814 353.289C84.2043 351.481 82.2966 349.019 81.3584 345.902C80.4202 342.786 79.9511 338.828 79.9511 334.028C79.9511 328.107 80.5766 322.03 81.8275 315.797L93.0858 315.797C92.3978 321.406 92.0538 326.393 92.0538 330.756C92.0538 335.368 92.4916 338.329 93.3673 339.638C93.8051 340.386 94.4306 340.854 95.2437 341.041C95.9942 341.228 97.1826 341.321 98.8088 341.321C100.623 341.321 101.905 341.228 102.655 341.041C103.406 340.854 103.969 340.448 104.344 339.825C104.657 339.14 104.938 337.986 105.189 336.366L106.783 325.24C107.159 322.747 107.784 320.69 108.66 319.069C109.535 317.386 111.037 316.015 113.163 314.955C115.915 313.646 119.856 312.992 124.984 312.992C130.989 312.992 135.524 313.833 138.588 315.516C141.653 317.199 143.655 319.505 144.593 322.435C145.531 325.302 146 329.073 146 333.748Z" fill="#1E4A32"/>
<path d="M145.249 292.973L93.2735 292.973L93.2735 308.12L80.7017 308.12L80.7017 263.148L93.2735 263.148L93.2735 278.388L145.249 278.388L145.249 292.973Z" fill="#1E4A32"/>
<path d="M145.249 224.929L132.302 228.202L132.302 247.181L145.249 250.267L145.249 264.852L80.7017 247.649L80.7017 227.267L145.249 210.157L145.249 224.929ZM93.8364 237.458L93.8364 238.019L120.293 244.283L120.293 231.1L93.8364 237.458Z" fill="#1E4A32"/>
<path d="M145.249 172.051L122.639 179.531L122.639 188.881L145.249 188.881L145.249 203.373L80.7017 203.373L80.7017 176.913C80.7017 171.615 81.5148 167.626 83.141 164.946C84.7046 162.265 86.9563 160.489 89.896 159.616C92.8356 158.681 96.7448 158.214 101.623 158.214C106.189 158.214 110.098 158.712 113.351 159.71C116.541 160.707 118.886 162.733 120.387 165.787L145.249 156.811L145.249 172.051ZM110.63 181.588C110.63 178.845 110.411 176.913 109.973 175.791C109.535 174.607 108.754 173.828 107.628 173.454C106.439 173.08 104.469 172.893 101.717 172.893C98.9026 172.893 96.9324 173.08 95.8066 173.454C94.6182 173.765 93.8364 174.513 93.4611 175.698C93.0233 176.82 92.8044 178.752 92.8044 181.494L92.8044 188.881L110.63 188.881L110.63 181.588Z" fill="#1E4A32"/>
<path d="M145.249 137.664L93.2735 137.664L93.2735 152.81L80.7017 152.81L80.7016 107.838L93.2735 107.838L93.2735 123.078L145.249 123.078L145.249 137.664Z" fill="#1E4A32"/>
<path d="M80.7016 55.8698L116.353 55.8698C124.984 55.8698 131.239 56.3061 135.117 57.1787C138.995 58.0514 141.778 60.046 143.467 63.1625C145.156 66.279 146 71.3902 146 78.4959C146 85.6016 145.156 90.7127 143.467 93.8292C141.778 96.9458 138.995 98.9716 135.117 99.9065C131.177 100.779 124.922 101.215 116.353 101.215L80.7016 101.215L80.7016 86.6301L120.2 86.6301C124.766 86.6301 127.924 86.5054 129.675 86.2561C131.427 85.9444 132.584 85.2588 133.147 84.1992C133.71 83.1395 133.991 81.2385 133.991 78.4959C133.991 75.7533 133.71 73.8834 133.147 72.8861C132.584 71.8265 131.458 71.172 129.769 70.9227C128.018 70.611 124.828 70.4552 120.2 70.4552L80.7016 70.4552L80.7016 55.8698Z" fill="#1E4A32"/>
<path d="M80.7016 44.4107L80.7016 18.3252C80.7016 13.1518 81.546 9.2561 83.2348 6.63818C84.861 4.02029 87.2065 2.27505 90.2712 1.4024C93.336 0.467464 97.4328 -4.25892e-06 102.562 -4.48311e-06C107.44 -4.69636e-06 111.412 0.436305 114.477 1.30892C117.541 2.11923 119.981 3.8645 121.795 6.5447C123.608 9.22494 124.515 13.1829 124.515 18.4188L124.515 29.9188L145.249 29.9188L145.249 44.4107L80.7016 44.4107ZM112.413 23.374C112.413 20.6315 112.194 18.6681 111.756 17.4838C111.256 16.2995 110.38 15.5204 109.129 15.1464C107.815 14.7724 105.626 14.5854 102.562 14.5854C99.4968 14.5854 97.339 14.7724 96.088 15.1464C94.7746 15.5204 93.8989 16.2995 93.4611 17.4838C93.0233 18.6681 92.8044 20.6315 92.8044 23.374L92.8044 29.9188L112.413 29.9188L112.413 23.374Z" fill="#1E4A32"/>
</svg>
