<svg width="136" height="408" viewBox="0 0 136 408" fill="none" xmlns="http://www.w3.org/2000/svg">
<path d="M34.3991 387.132L24.301 387.132L24.301 368.647L55.9088 368.647C56.4561 371.057 56.894 373.878 57.2224 377.109C57.6055 380.286 57.797 383.216 57.797 385.9C57.797 392.199 57.0582 396.882 55.5804 399.949C54.0479 402.961 51.2839 405.07 47.2885 406.275C43.2931 407.425 37.1631 408 28.8985 408C21.0171 408 15.0513 407.398 11.0011 406.193C6.95097 404.988 4.1049 402.824 2.46294 399.702C0.820981 396.526 -7.08655e-07 391.788 -9.83977e-07 385.489C-1.11805e-06 382.422 0.218927 379.273 0.656784 376.041C1.03991 372.81 1.42303 370.427 1.80616 368.894L11.6579 368.894C10.9464 374.59 10.5906 378.698 10.5906 381.217C10.5906 385.873 10.8917 389.049 11.4937 390.747C12.0958 392.445 13.6009 393.595 16.0091 394.198C18.3626 394.8 22.6591 395.101 28.8985 395.101C34.5907 395.101 38.6682 394.91 41.1311 394.526C43.5941 394.088 45.2634 393.239 46.1391 391.98C47.0148 390.665 47.4527 388.502 47.4527 385.489C47.4527 384.175 47.398 382.532 47.2885 380.56L34.3991 380.56L34.3991 387.132Z" fill="#1E4A32"/>
<path d="M57.1403 331.183L37.3546 337.756L37.3546 345.972L57.1403 345.972L57.1403 358.706L0.656784 358.706L0.656783 335.456C0.656782 330.8 1.3683 327.295 2.79133 324.94C4.15963 322.584 6.12999 321.023 8.70239 320.257C11.2748 319.435 14.6955 319.024 18.9646 319.024C22.9601 319.024 26.3808 319.462 29.2269 320.339C32.0182 321.215 34.0707 322.995 35.3843 325.679L57.1403 317.792L57.1403 331.183ZM26.8461 339.563C26.8461 337.153 26.6545 335.456 26.2714 334.47C25.8883 333.429 25.2041 332.744 24.2189 332.416C23.179 332.087 21.455 331.923 19.0467 331.923C16.5838 331.923 14.8598 332.087 13.8746 332.416C12.8347 332.69 12.1505 333.347 11.8221 334.387C11.439 335.373 11.2474 337.071 11.2474 339.481L11.2474 345.972L26.8461 345.972L26.8461 339.563Z" fill="#1E4A32"/>
<path d="M57.797 290.204C57.797 297.051 56.9761 301.953 55.3341 304.91C53.6374 307.813 50.9555 309.648 47.2885 310.415C43.5667 311.127 37.4367 311.483 28.8985 311.483C20.3603 311.483 14.2577 311.127 10.5906 310.415C6.86887 309.648 4.187 307.813 2.54504 304.91C0.848344 301.953 -4.84975e-06 297.051 -5.14902e-06 290.204C-5.45068e-06 283.303 0.848343 278.401 2.54504 275.498C4.187 272.541 6.8415 270.706 10.5085 269.994C14.1756 269.282 20.3056 268.926 28.8985 268.926C37.4914 268.926 43.6214 269.282 47.2885 269.994C50.9555 270.706 53.6374 272.541 55.3341 275.498C56.9761 278.401 57.797 283.303 57.797 290.204ZM47.2064 290.204C47.2064 287.247 46.9054 285.275 46.3033 284.289C45.7013 283.248 44.2782 282.591 42.0342 282.317C39.7902 282.043 35.4116 281.906 28.8985 281.906C22.3854 281.906 18.0068 282.043 15.7628 282.317C13.5188 282.591 12.0958 283.248 11.4937 284.289C10.8917 285.275 10.5906 287.247 10.5906 290.204C10.5906 293.162 10.8917 295.161 11.4937 296.202C12.0958 297.187 13.5188 297.817 15.7628 298.091C18.0068 298.365 22.3854 298.502 28.8985 298.502C35.4116 298.502 39.7902 298.365 42.0342 298.091C44.2782 297.817 45.7013 297.187 46.3033 296.202C46.9054 295.161 47.2064 293.162 47.2064 290.204Z" fill="#1E4A32"/>
<path d="M57.1403 222.053L20.114 229.282L20.114 229.775L57.1403 237.005L57.1403 253.765L0.65678 264.445L0.656779 251.629L42.9373 244.81L42.9373 244.317L0.656778 236.266L0.656778 222.381L42.9373 214.166L42.9373 213.673L0.656777 207.264L0.656777 194.53L57.1402 205.293L57.1403 222.053Z" fill="#1E4A32"/>
<path d="M57.1402 179.899L11.6579 179.899L11.6579 193.208L0.656776 193.208L0.656775 153.691L11.6579 153.691L11.6579 167.082L57.1402 167.082L57.1402 179.899Z" fill="#1E4A32"/>
<path d="M57.1402 119.61L34.317 119.61L34.317 134.726L57.1402 134.726L57.1402 147.543L0.656774 147.543L0.656774 134.726L23.1516 134.726L23.1516 119.61L0.656773 119.61L0.656773 106.793L57.1402 106.793L57.1402 119.61Z" fill="#1E4A32"/>
<path d="M134.604 374.562C134.987 376.096 135.316 378.04 135.59 380.396C135.863 382.751 136 384.969 136 387.05C136 393.239 135.152 397.813 133.455 400.77C131.704 403.673 128.857 405.617 124.917 406.603C120.976 407.534 115.038 408 107.101 408C99.2748 408 93.3911 407.507 89.4504 406.521C85.455 405.535 82.5815 403.591 80.8301 400.688C79.0787 397.73 78.203 393.185 78.203 387.05C78.203 384.914 78.3398 382.723 78.6134 380.478C78.8871 378.177 79.2429 376.288 79.6807 374.809L89.5325 374.809C89.0399 379.464 88.7936 382.559 88.7936 384.093C88.7936 387.817 89.1767 390.391 89.943 391.815C90.6545 393.185 92.1596 394.061 94.4584 394.444C96.7024 394.828 100.917 395.019 107.101 395.019C113.286 395.019 117.528 394.828 119.827 394.444C122.071 394.061 123.576 393.185 124.342 391.815C125.054 390.391 125.409 387.817 125.409 384.093C125.409 380.916 125.163 377.739 124.67 374.562L134.604 374.562Z" fill="#1E4A32"/>
<path d="M136 346.446C136 353.292 135.179 358.194 133.537 361.152C131.84 364.055 129.159 365.889 125.491 366.656C121.77 367.368 115.64 367.724 107.101 367.724C98.5633 367.724 92.4607 367.368 88.7936 366.656C85.0718 365.889 82.39 364.055 80.748 361.152C79.0513 358.194 78.203 353.292 78.203 346.446C78.203 339.545 79.0513 334.643 80.748 331.74C82.39 328.782 85.0445 326.947 88.7115 326.235C92.3786 325.523 98.5085 325.167 107.101 325.167C115.694 325.167 121.824 325.523 125.491 326.235C129.158 326.947 131.84 328.782 133.537 331.74C135.179 334.643 136 339.545 136 346.446ZM125.409 346.446C125.409 343.488 125.108 341.516 124.506 340.531C123.904 339.49 122.481 338.833 120.237 338.559C117.993 338.285 113.615 338.148 107.101 338.148C100.588 338.148 96.2098 338.285 93.9658 338.559C91.7218 338.833 90.2987 339.49 89.6967 340.531C89.0946 341.516 88.7936 343.488 88.7936 346.446C88.7936 349.403 89.0946 351.403 89.6967 352.443C90.2987 353.429 91.7218 354.059 93.9658 354.333C96.2098 354.607 100.588 354.744 107.101 354.744C113.615 354.744 117.993 354.607 120.237 354.333C122.481 354.059 123.904 353.429 124.506 352.443C125.108 351.403 125.409 349.403 125.409 346.446Z" fill="#1E4A32"/>
<path d="M135.343 288.501L115.558 295.073L115.558 303.289L135.343 303.289L135.343 316.023L78.8597 316.023L78.8597 292.773C78.8597 288.117 79.5713 284.612 80.9943 282.257C82.3626 279.902 84.3329 278.341 86.9054 277.574C89.4778 276.752 92.8985 276.342 97.1676 276.342C101.163 276.342 104.584 276.78 107.43 277.656C110.221 278.532 112.274 280.313 113.587 282.996L135.343 275.109L135.343 288.501ZM105.049 296.881C105.049 294.471 104.857 292.773 104.474 291.787C104.091 290.746 103.407 290.062 102.422 289.733C101.382 289.404 99.6579 289.24 97.2497 289.24C94.7868 289.24 93.0627 289.404 92.0775 289.733C91.0376 290.007 90.3535 290.664 90.0251 291.705C89.642 292.691 89.4504 294.389 89.4504 296.799L89.4504 303.289L105.049 303.289L105.049 296.881Z" fill="#1E4A32"/>
<path d="M78.8597 267.403L78.8597 244.482C78.8597 239.936 79.5986 236.513 81.0764 234.212C82.4994 231.912 84.5519 230.378 87.2337 229.612C89.9156 228.79 93.5006 228.379 97.9886 228.379C102.258 228.379 105.733 228.763 108.415 229.529C111.097 230.241 113.231 231.775 114.819 234.13C116.406 236.485 117.2 239.963 117.2 244.564L117.2 254.669L135.343 254.669L135.343 267.403L78.8597 267.403ZM106.609 248.918C106.609 246.508 106.417 244.783 106.034 243.742C105.596 242.702 104.83 242.017 103.735 241.688C102.586 241.36 100.67 241.196 97.9886 241.196C95.3067 241.196 93.4185 241.36 92.3238 241.688C91.1745 242.017 90.4082 242.702 90.0251 243.742C89.642 244.783 89.4504 246.508 89.4504 248.918L89.4504 254.669L106.609 254.669L106.609 248.918Z" fill="#1E4A32"/>
<path d="M136 200.908C136 207.754 135.179 212.656 133.537 215.614C131.84 218.516 129.158 220.351 125.491 221.118C121.77 221.83 115.64 222.186 107.101 222.186C98.5633 222.186 92.4607 221.83 88.7936 221.118C85.0718 220.351 82.39 218.516 80.748 215.614C79.0513 212.656 78.203 207.754 78.203 200.908C78.203 194.006 79.0513 189.104 80.748 186.202C82.39 183.244 85.0445 181.409 88.7115 180.697C92.3786 179.985 98.5085 179.629 107.101 179.629C115.694 179.629 121.824 179.985 125.491 180.697C129.158 181.409 131.84 183.244 133.537 186.202C135.179 189.104 136 194.006 136 200.908ZM125.409 200.908C125.409 197.95 125.108 195.978 124.506 194.992C123.904 193.952 122.481 193.294 120.237 193.021C117.993 192.747 113.615 192.61 107.101 192.61C100.588 192.61 96.2098 192.747 93.9658 193.021C91.7218 193.294 90.2987 193.952 89.6967 194.992C89.0946 195.978 88.7936 197.95 88.7936 200.908C88.7936 203.865 89.0946 205.864 89.6967 206.905C90.2987 207.891 91.7218 208.521 93.9658 208.795C96.2098 209.068 100.588 209.205 107.101 209.205C113.615 209.205 117.993 209.068 120.237 208.795C122.481 208.521 123.904 207.891 124.506 206.905C125.108 205.864 125.409 203.865 125.409 200.908Z" fill="#1E4A32"/>
<path d="M135.343 142.962L115.558 149.535L115.558 157.751L135.343 157.751L135.343 170.485L78.8597 170.485L78.8597 147.235C78.8597 142.579 79.5713 139.074 80.9943 136.719C82.3626 134.364 84.3329 132.803 86.9053 132.036C89.4778 131.214 92.8985 130.803 97.1676 130.803C101.163 130.803 104.584 131.242 107.43 132.118C110.221 132.994 112.274 134.774 113.587 137.458L135.343 129.571L135.343 142.962ZM105.049 151.342C105.049 148.933 104.857 147.235 104.474 146.249C104.091 145.208 103.407 144.523 102.422 144.195C101.382 143.866 99.6579 143.702 97.2497 143.702C94.7868 143.702 93.0627 143.866 92.0775 144.195C91.0376 144.469 90.3535 145.126 90.0251 146.167C89.642 147.152 89.4504 148.85 89.4504 151.26L89.4504 157.751L105.049 157.751L105.049 151.342Z" fill="#1E4A32"/>
<path d="M135.343 91.3852L124.014 94.2606L124.014 110.938L135.343 113.649L135.343 126.466L78.8597 111.349L78.8597 93.4391L135.343 78.4045L135.343 91.3852ZM90.3535 102.394L90.3535 102.887L113.505 108.392L113.505 96.8075L90.3535 102.394Z" fill="#1E4A32"/>
<path d="M135.343 66.533L89.8609 66.533L89.8609 79.8423L78.8597 79.8423L78.8597 40.3252L89.8609 40.3252L89.8609 53.7166L135.343 53.7166L135.343 66.533Z" fill="#1E4A32"/>
<path d="M135.343 34.0126L78.8597 34.0126L78.8597 -3.44707e-06L89.4504 -3.91e-06L89.4504 21.2784L101.519 21.2784L101.519 3.03976L112.109 3.03976L112.109 21.2784L124.753 21.2784L124.753 -5.45311e-06L135.343 -5.91604e-06L135.343 34.0126Z" fill="#1E4A32"/>
</svg>
