<svg width="76" height="29" viewBox="0 0 76 29" fill="none" xmlns="http://www.w3.org/2000/svg">
<g clip-path="url(#clip0)">
<path d="M21.124 9.82764L16.707 8.3535V1.96557L21.1294 3.27591L21.124 9.82764Z" fill="white"/>
<path d="M22.2754 3.27591L26.6978 1.96557L26.6824 8.34908L22.2754 9.82764V3.27591Z" fill="white"/>
<path d="M25.7971 1.27372L21.6754 -0.000104189L17.6074 1.27372L21.6813 2.36572L25.7971 1.27372Z" fill="white"/>
<path d="M32.2617 9.82764L27.8447 8.3535V1.96557L32.2671 3.27591L32.2617 9.82764Z" fill="white"/>
<path d="M33.4141 3.27591L37.8365 1.96557L37.8211 8.34908L33.4141 9.82764V3.27591Z" fill="white"/>
<path d="M36.9357 1.27372L32.8141 -0.000104189L28.7461 1.27372L32.82 2.36572L36.9357 1.27372Z" fill="white"/>
<path d="M4.42241 12.6119L0 11.3015V17.6894L4.41704 19.1636L4.42241 12.6119Z" fill="white"/>
<path d="M5.56934 12.6119L9.99175 11.3015L9.9764 17.6851L5.56934 19.1636V12.6119Z" fill="white"/>
<path d="M9.09005 10.6101L4.96834 9.33632L0.900391 10.6101L4.9743 11.7021L9.09005 10.6101Z" fill="white"/>
<path d="M15.5547 19.1636L11.1377 17.6894V11.3015L15.5601 12.6119L15.5547 19.1636Z" fill="white"/>
<path d="M16.707 12.6119L21.1294 11.3015L21.114 17.6851L16.707 19.1636V12.6119Z" fill="white"/>
<path d="M20.2287 10.6101L16.107 9.33632L12.0391 10.6101L16.113 11.7021L20.2287 10.6101Z" fill="white"/>
<path d="M9.98638 28.5L5.56934 27.0259V20.6379L9.99175 21.9483L9.98638 28.5Z" fill="white"/>
<path d="M11.1377 21.9483L15.5601 20.6379L15.5448 27.0216L11.1377 28.5V21.9483Z" fill="white"/>
<path d="M14.6594 19.9461L10.5377 18.6722L6.46973 19.9461L10.5436 21.0381L14.6594 19.9461Z" fill="white"/>
<path d="M29.5471 22.8532L29.2221 22.8544C29.1029 22.8544 28.9509 22.9349 28.9135 23.0655L27.9277 26.5388L26.9526 23.0731C26.9233 22.9644 26.8209 22.8544 26.6817 22.8544H26.297C26.1584 22.8544 26.0573 22.9659 26.0293 23.0753L25.1222 26.505L24.185 23.0647C24.148 22.9389 23.9922 22.8544 23.87 22.8544L23.4024 22.8535C23.3025 22.8535 23.2096 22.8965 23.1598 22.9656C23.1261 23.0124 23.1167 23.0655 23.1323 23.1117L24.5802 28.2377C24.6122 28.3455 24.7055 28.4541 24.8421 28.4541H25.3072C25.4328 28.4541 25.5429 28.3625 25.5746 28.2327L26.4658 24.8181L27.4356 28.2366C27.4648 28.3412 27.5587 28.4541 27.6959 28.4541H28.1534C28.2807 28.4541 28.3878 28.3657 28.4192 28.2361L29.8129 23.1138C29.8293 23.0645 29.8198 23.0096 29.7866 22.9634C29.7376 22.8954 29.6459 22.8532 29.5471 22.8532Z" fill="white"/>
<path d="M33.567 25.0298H31.1105C31.167 24.3404 31.6146 23.6256 32.373 23.5981C33.18 23.6244 33.5492 24.3228 33.567 25.0298ZM32.3712 22.8168C30.7118 22.8168 29.9561 24.2838 29.9561 25.6467C29.9561 27.3478 30.8956 28.4468 32.3496 28.4468C33.3901 28.4468 34.1834 27.921 34.526 27.0025C34.5444 26.9499 34.5387 26.8929 34.51 26.8418C34.4751 26.7797 34.4089 26.7329 34.3306 26.7157L33.8701 26.6276C33.7464 26.6082 33.6047 26.6815 33.5579 26.7877C33.3341 27.2981 32.9263 27.5877 32.4144 27.6028C31.9219 27.5876 31.4697 27.295 31.2625 26.8578C31.0941 26.5008 31.0692 26.1488 31.0664 25.7909L34.4014 25.7898C34.4713 25.7898 34.5437 25.759 34.5948 25.7072C34.6376 25.6643 34.6608 25.6109 34.6604 25.5575C34.6522 24.2324 34.0466 22.8168 32.3712 22.8168Z" fill="white"/>
<path d="M38.764 25.655C38.764 25.9688 38.7072 27.5358 37.5939 27.576C37.2208 27.5617 36.8437 27.3424 36.6331 27.0181C36.478 26.7729 36.3874 26.4338 36.3641 26.0144V25.0924C36.3823 24.3861 36.8794 23.611 37.5903 23.581C38.7073 23.6251 38.764 25.3162 38.764 25.655ZM37.7685 22.7693H37.6802C37.1294 22.7693 36.6965 22.9981 36.3641 23.4671L36.3636 21.3061C36.3636 21.1848 36.2383 21.0742 36.0999 21.0742H35.6203C35.495 21.0742 35.3548 21.1734 35.3545 21.3061V28.0518C35.355 28.1743 35.4803 28.2856 35.6185 28.2856L35.7594 28.2849C35.8924 28.2849 35.9871 28.1777 36.019 28.0782L36.169 27.602C36.5176 28.097 37.0425 28.3877 37.6044 28.3877H37.6903C39.1702 28.3877 39.8326 26.9483 39.8326 25.5218C39.8326 24.8118 39.6575 24.1328 39.3524 23.6592C38.9997 23.1103 38.3927 22.7693 37.7685 22.7693Z" fill="white"/>
<path d="M45.0831 25.5029C44.7713 25.2789 44.3964 25.204 44.0208 25.129L43.3006 24.9955C42.7838 24.9105 42.4847 24.7719 42.4847 24.3159C42.4847 23.8339 42.9843 23.6496 43.4079 23.6382C43.9251 23.6512 44.3141 23.882 44.503 24.2879C44.5479 24.3836 44.6473 24.4479 44.7506 24.4479C44.7683 24.4479 44.7863 24.4459 44.8034 24.4422L45.2528 24.3429C45.3262 24.3267 45.3947 24.2765 45.4314 24.2111C45.4607 24.1592 45.4671 24.1025 45.4495 24.0519C45.1745 23.2508 44.4763 22.8274 43.42 22.8274C42.4656 22.8295 41.4456 23.2539 41.4456 24.4392C41.4456 25.2494 41.9547 25.7638 42.9597 25.9686L43.7659 26.1222C44.2085 26.2069 44.661 26.3576 44.661 26.8328C44.661 27.5363 43.8424 27.608 43.5949 27.6131C43.0397 27.6011 42.411 27.3535 42.2584 26.829C42.2277 26.7137 42.0826 26.6321 41.9553 26.6586L41.4853 26.7556C41.4145 26.7705 41.3498 26.8165 41.3121 26.8787C41.2805 26.9304 41.2715 26.9884 41.2861 27.0413C41.5287 27.9115 42.3688 28.4363 43.5333 28.4451L43.5592 28.4453C44.5993 28.4453 45.7106 27.9999 45.7106 26.7506C45.7106 26.242 45.4818 25.7873 45.0831 25.5029Z" fill="white"/>
<path d="M49.8385 25.0347H47.3813C47.4375 24.3447 47.8851 23.6296 48.6435 23.6033C49.4502 23.6289 49.8199 24.3273 49.8385 25.0347ZM48.6422 22.8214C46.9825 22.8214 46.2266 24.2885 46.2266 25.6514C46.2266 27.3523 47.1662 28.4512 48.6204 28.4512C49.6611 28.4512 50.4544 27.9254 50.7974 27.007C50.8156 26.9544 50.8098 26.8972 50.781 26.846C50.7461 26.7839 50.6798 26.737 50.6016 26.7201L50.1404 26.632C50.0325 26.6145 49.8819 26.6704 49.8289 26.7924C49.605 27.3024 49.197 27.592 48.6856 27.6078C48.1926 27.592 47.7405 27.2995 47.5341 26.8625C47.3654 26.5063 47.3404 26.154 47.3379 25.7952L50.6726 25.7944C50.742 25.7944 50.8139 25.7638 50.865 25.7124C50.9079 25.6692 50.9312 25.6159 50.9307 25.5621C50.923 24.2372 50.3179 22.8214 48.6422 22.8214Z" fill="white"/>
<path d="M54.0794 22.8838C54.0144 22.8766 53.9518 22.8732 53.8911 22.8732C53.3314 22.8732 52.8769 23.1775 52.5614 23.7588L52.5626 23.2497C52.5621 23.1264 52.4391 23.0181 52.2993 23.0181H51.8828C51.7462 23.0181 51.6257 23.1269 51.6247 23.2517L51.624 28.1971C51.624 28.3212 51.7446 28.4302 51.8822 28.4302L52.3681 28.43C52.4946 28.43 52.6369 28.3307 52.6381 28.1971L52.6384 25.7038C52.6384 25.2927 52.6767 24.983 52.8731 24.6165C53.1537 24.0946 53.5455 23.8385 54.0709 23.8344C54.2026 23.8335 54.3183 23.7185 54.3183 23.5883V23.1257C54.3183 23.0047 54.2133 22.8984 54.0794 22.8838Z" fill="white"/>
<path d="M59.1816 22.7864L58.7978 22.7866C58.6776 22.7866 58.5235 22.8729 58.4861 22.9995L57.2421 26.9093L55.9717 23.0034C55.9342 22.8737 55.7798 22.7866 55.6589 22.7866L55.1108 22.786C55.0103 22.786 54.913 22.8309 54.8632 22.9002C54.8298 22.9466 54.8206 22.9992 54.8371 23.0482L56.5758 28.2059C56.6092 28.308 56.6978 28.4272 56.838 28.4272H57.5012C57.6229 28.4272 57.7227 28.3444 57.7684 28.2055L59.4548 23.0499C59.4717 23.001 59.4627 22.9482 59.4294 22.9017C59.3793 22.8317 59.2821 22.7864 59.1816 22.7864Z" fill="white"/>
<path d="M60.4427 20.8043C60.0892 20.8043 59.8018 21.0925 59.8018 21.4472C59.8018 21.8017 60.0892 22.0898 60.4427 22.0898C60.7963 22.0898 61.0841 21.8017 61.0841 21.4472C61.0841 21.0925 60.7963 20.8043 60.4427 20.8043Z" fill="white"/>
<path d="M60.7067 22.7551L60.1804 22.7545C60.0373 22.7545 59.9069 22.8704 59.9069 22.9973L59.9043 28.2483C59.9043 28.3119 59.9371 28.375 59.9937 28.4218C60.0456 28.4643 60.112 28.4889 60.1787 28.4889L60.7087 28.4897H60.709C60.8543 28.4885 60.9819 28.3758 60.9819 28.2487V22.9973C60.9819 22.8683 60.8532 22.7551 60.7067 22.7551Z" fill="white"/>
<path d="M65.6246 26.3161L65.1852 26.3177C65.0625 26.3177 64.9596 26.3914 64.9139 26.5195C64.7534 27.212 64.3898 27.5709 63.8385 27.5867C62.7646 27.5548 62.6813 26.0581 62.6813 25.6001C62.6813 24.6868 62.9976 23.7013 63.8806 23.6752C64.4135 23.6916 64.8012 24.0738 64.9175 24.6965C64.9395 24.8236 65.0371 24.9197 65.1704 24.9364L65.6407 24.941C65.7812 24.9258 65.8914 24.8195 65.8905 24.6876C65.7241 23.5622 64.9442 22.8348 63.902 22.8348L63.866 22.8358L63.8252 22.8348C62.3095 22.8348 61.6309 24.2494 61.6309 25.6514C61.6309 26.9367 62.203 28.4375 63.8167 28.4375H63.894C64.9102 28.4375 65.6772 27.7252 65.8968 26.5703C65.9018 26.5152 65.8828 26.4602 65.8438 26.4155C65.7933 26.3575 65.7129 26.3203 65.6246 26.3161Z" fill="white"/>
<path d="M69.9652 25.0347H67.5076C67.5638 24.3445 68.0116 23.6296 68.7704 23.6033C69.5773 23.6289 69.9468 24.3273 69.9652 25.0347ZM68.7688 22.8214C67.1093 22.8214 66.3535 24.2885 66.3535 25.6514C66.3535 27.3523 67.2932 28.4512 68.7474 28.4512C69.7876 28.4512 70.5805 27.9257 70.9238 27.0072C70.9417 26.9543 70.9358 26.8969 70.9071 26.846C70.8717 26.7834 70.8074 26.7377 70.7279 26.7201L70.2674 26.632C70.1589 26.6145 70.0089 26.6704 69.9558 26.7924C69.7313 27.3024 69.3231 27.592 68.8119 27.608C68.319 27.592 67.8671 27.2995 67.6607 26.8625C67.4919 26.5057 67.4668 26.1535 67.4642 25.7952L70.7992 25.7947C70.8693 25.7947 70.9417 25.7638 70.993 25.7119C71.0355 25.6685 71.0585 25.6151 71.0577 25.5621C71.05 24.2372 70.4447 22.8214 68.7688 22.8214Z" fill="white"/>
<path d="M75.2356 25.5029C74.9232 25.2787 74.5478 25.2039 74.1729 25.129L73.4527 24.9955C72.9364 24.9105 72.6375 24.7719 72.6375 24.3159C72.6375 23.6942 73.4091 23.6422 73.5597 23.6382C74.0774 23.6512 74.4664 23.882 74.6549 24.2881C74.7002 24.3837 74.7999 24.4479 74.9034 24.4479C74.9213 24.4479 74.9391 24.4459 74.9565 24.4422L75.4056 24.3429C75.479 24.3267 75.5473 24.2763 75.584 24.2109C75.6131 24.159 75.6195 24.1025 75.602 24.0519C75.3273 23.2508 74.6289 22.8274 73.5721 22.8274C72.618 22.8295 71.5984 23.2539 71.5984 24.4392C71.5984 25.2496 72.1073 25.764 73.1122 25.9686L73.9187 26.1222C74.3613 26.2069 74.8138 26.3576 74.8138 26.8328C74.8138 27.5363 73.9952 27.608 73.7477 27.6131C73.2329 27.6021 72.574 27.3895 72.4113 26.8297C72.3815 26.7137 72.2365 26.6323 72.107 26.6586L71.6377 26.7556C71.5666 26.7707 71.5018 26.817 71.4641 26.8793C71.4328 26.9312 71.4238 26.9887 71.4385 27.0413C71.6805 27.9115 72.5204 28.4363 73.6851 28.4451L73.711 28.4453C74.7513 28.4453 75.8628 27.9999 75.8628 26.7506C75.8628 26.2417 75.6341 25.7868 75.2356 25.5029Z" fill="white"/>
<path fill-rule="evenodd" clip-rule="evenodd" d="M53.8408 12.6454V11.4529C53.8414 11.2721 53.9787 11.1507 54.1435 11.1509L59.4856 11.1507C59.6561 11.1507 59.7937 11.2751 59.7937 11.4516V12.4742C59.792 12.6454 59.6474 12.8692 59.3912 13.2246L56.6243 17.1754C57.6509 17.151 58.7379 17.3047 59.6708 17.8293C59.8816 17.9475 59.9377 18.1229 59.9549 18.2942V19.5666C59.9549 19.742 59.7629 19.9448 59.5614 19.8391C57.9171 18.9776 55.7349 18.8836 53.9163 19.8491C53.7307 19.9482 53.5361 19.7486 53.5361 19.5732V18.3642C53.5361 18.1713 53.5401 17.8399 53.7348 17.5448L56.9411 12.9457L54.1499 12.9451C53.979 12.9451 53.8424 12.8235 53.8408 12.6454Z" fill="white"/>
<path fill-rule="evenodd" clip-rule="evenodd" d="M34.3545 20.0898H32.7289C32.5744 20.0797 32.4508 19.9632 32.4385 19.8147L32.4396 11.473C32.4396 11.3061 32.5802 11.1728 32.7531 11.1728L34.2667 11.172C34.4253 11.1808 34.5521 11.3004 34.5629 11.4521V12.542H34.593C34.9871 11.4883 35.7306 10.9975 36.7317 10.9975C37.748 10.9975 38.3853 11.4883 38.8405 12.542C39.2352 11.4883 40.13 10.9975 41.0866 10.9975C41.7693 10.9975 42.5118 11.278 42.9669 11.9095C43.4827 12.612 43.3764 13.6295 43.3764 14.5251L43.3754 19.7893C43.3754 19.9557 43.2351 20.0898 43.0623 20.0898H41.4391C41.2756 20.0797 41.147 19.9493 41.147 19.7901V15.3675C41.147 15.0167 41.177 14.1387 41.1013 13.8054C40.9796 13.2432 40.6154 13.0861 40.1458 13.0861C39.7509 13.0861 39.341 13.3494 39.1741 13.7698C39.0074 14.1918 39.0228 14.8938 39.0228 15.3675V19.7893C39.0228 19.9557 38.8824 20.0898 38.7093 20.0898H37.0858C36.9231 20.0797 36.7942 19.9493 36.7942 19.7901L36.7921 15.3675C36.7921 14.4371 36.9443 13.0686 35.7915 13.0686C34.6233 13.0686 34.6688 14.4023 34.6688 15.3675L34.6679 19.7893C34.6685 19.9557 34.528 20.0898 34.3545 20.0898Z" fill="white"/>
<path fill-rule="evenodd" clip-rule="evenodd" d="M64.4079 12.6996C63.2088 12.6996 63.1333 14.3319 63.1333 15.3504C63.1333 16.3683 63.1182 18.5447 64.3932 18.5447C65.6526 18.5447 65.713 16.7893 65.713 15.7187C65.713 15.0167 65.683 14.1744 65.4706 13.5073C65.288 12.9278 64.9242 12.6996 64.4079 12.6996ZM64.3932 10.9976C66.8052 10.9976 68.1101 13.0686 68.1101 15.7006C68.1101 18.2464 66.6683 20.2651 64.3932 20.2651C62.0262 20.2651 60.7363 18.1935 60.7363 15.6133C60.7363 13.0155 62.0408 10.9976 64.3932 10.9976Z" fill="white"/>
<path fill-rule="evenodd" clip-rule="evenodd" d="M71.2386 20.0898H69.6192C69.4561 20.0797 69.3275 19.9493 69.3275 19.7901L69.3252 11.4447C69.3386 11.2927 69.4736 11.1728 69.6367 11.1728L71.1448 11.172C71.2869 11.1798 71.4036 11.2765 71.4334 11.4057V12.6821H71.4642C71.9187 11.541 72.5563 10.9975 73.6785 10.9975C74.4069 10.9975 75.1204 11.2601 75.5752 11.98C75.9998 12.6467 75.9998 13.7698 75.9998 14.5774V19.8268C75.9816 19.9747 75.8497 20.0898 75.6892 20.0898H74.0591C73.9088 20.08 73.7879 19.969 73.7697 19.8268V15.2974C73.7697 14.3847 73.8762 13.0503 72.7531 13.0503C72.3588 13.0503 71.9952 13.3142 71.8129 13.7175C71.585 14.2263 71.5549 14.7353 71.5549 15.2974V19.7893C71.5521 19.9557 71.4116 20.0898 71.2386 20.0898Z" fill="white"/>
<path fill-rule="evenodd" clip-rule="evenodd" d="M51.2212 20.0688C51.1134 20.165 50.9591 20.1714 50.8376 20.1066C50.2979 19.658 50.2009 19.45 49.9059 19.0233C49.0137 19.932 48.382 20.2046 47.2268 20.2046C45.8579 20.2046 44.7939 19.3601 44.7939 17.6714C44.7939 16.3524 45.5082 15.4552 46.5269 15.0151C47.4087 14.628 48.6405 14.5575 49.5829 14.4516V14.2408C49.5829 13.854 49.6132 13.3964 49.3849 13.0624C49.1879 12.7633 48.8077 12.6405 48.4727 12.6405C47.8528 12.6405 47.3019 12.9583 47.1663 13.6167C47.1388 13.7629 47.0314 13.9081 46.8841 13.9151L45.3092 13.7445C45.1759 13.7146 45.0283 13.6082 45.0668 13.4052C45.4288 11.4938 47.1545 10.9162 48.7012 10.9162C49.4914 10.9162 50.5257 11.1272 51.1491 11.7252C51.9394 12.4644 51.8633 13.4493 51.8633 14.5225V17.0545C51.8633 17.8162 52.1799 18.1505 52.4775 18.561C52.5805 18.709 52.6038 18.8845 52.4714 18.993C52.1396 19.2712 51.5498 19.783 51.2256 20.0724L51.2212 20.0688ZM49.5829 16.1057C49.5829 16.7391 49.598 17.2673 49.2786 17.8298C49.0201 18.2876 48.6093 18.5688 48.1532 18.5688C47.5304 18.5688 47.1657 18.094 47.1657 17.39C47.1657 16.006 48.4075 15.7541 49.5829 15.7541V16.1057Z" fill="white"/>
<path fill-rule="evenodd" clip-rule="evenodd" d="M29.9157 20.0688C29.8082 20.165 29.6528 20.1714 29.5313 20.1066C28.9916 19.658 28.8949 19.45 28.5996 19.0233C27.7079 19.932 27.0758 20.2046 25.92 20.2046C24.5516 20.2046 23.4873 19.3601 23.4873 17.6714C23.4873 16.3524 24.2023 15.4552 25.2209 15.0151C26.1029 14.628 27.3345 14.5575 28.2769 14.4516V14.2408C28.2769 13.854 28.3076 13.3964 28.0792 13.0624C27.8817 12.7633 27.5012 12.6405 27.1672 12.6405C26.5473 12.6405 25.9958 12.9583 25.8607 13.6167C25.8325 13.7629 25.7255 13.9081 25.5785 13.9151L24.0029 13.7445C23.8699 13.7146 23.7222 13.6082 23.7603 13.4052C24.1223 11.4938 25.8482 10.9162 27.3948 10.9162C28.1859 10.9162 29.2194 11.1272 29.843 11.7252C30.6336 12.4644 30.5573 13.4493 30.5573 14.5225V17.0545C30.5573 17.8162 30.874 18.1505 31.1708 18.561C31.2744 18.709 31.2978 18.8845 31.1658 18.993C30.8336 19.2712 30.2434 19.783 29.9195 20.0724L29.9157 20.0688ZM28.2769 16.1057C28.2769 16.7391 28.2918 17.2673 27.9731 17.8298C27.7148 18.2876 27.3037 18.5688 26.8482 18.5688C26.2241 18.5688 25.8595 18.094 25.8595 17.39C25.8595 16.006 27.1011 15.7541 28.2769 15.7541V16.1057Z" fill="white"/>
</g>
<defs>
<clipPath id="clip0">
<rect width="76" height="28.5" fill="white"/>
</clipPath>
</defs>
</svg>
