<svg width="24" height="24" viewBox="0 0 24 24" fill="none" xmlns="http://www.w3.org/2000/svg">
<path fill-rule="evenodd" clip-rule="evenodd" d="M7.92 2H16.09C19.62 2 22 4.271 22 7.66V16.33C22 19.72 19.62 22 16.09 22H7.92C4.38 22 2 19.72 2 16.33V7.66C2 4.271 4.38 2 7.92 2ZM9.73003 12.7498H16.08C16.5 12.7498 16.83 12.4098 16.83 11.9998C16.83 11.5798 16.5 11.2498 16.08 11.2498H9.73003L12.21 8.77981C12.35 8.63981 12.43 8.43981 12.43 8.24981C12.43 8.06081 12.35 7.86981 12.21 7.71981C11.92 7.42981 11.44 7.42981 11.15 7.71981L7.38003 11.4698C7.10003 11.7498 7.10003 12.2498 7.38003 12.5298L11.15 16.2798C11.44 16.5698 11.92 16.5698 12.21 16.2798C12.5 15.9798 12.5 15.5098 12.21 15.2098L9.73003 12.7498Z" fill="white"/>
</svg>
