<svg width="31" height="31" viewBox="0 0 31 31" fill="none" xmlns="http://www.w3.org/2000/svg">
<path fill-rule="evenodd" clip-rule="evenodd" d="M2.71061 17.332C2.61317 16.6935 2.56445 16.0384 2.56445 15.3846C2.56445 8.31533 8.31574 2.56405 15.385 2.56405C22.4542 2.56405 28.2055 8.31533 28.2055 15.3846C28.2055 22.4538 22.4542 28.2051 15.385 28.2051C11.3747 28.2051 7.67086 26.3807 5.22215 23.2025C4.90804 22.7948 4.98497 22.2076 5.39138 21.8948C5.79907 21.5794 6.38368 21.6576 6.70035 22.0641C8.79138 24.7833 11.958 26.341 15.385 26.341C21.426 26.341 26.3414 21.4269 26.3414 15.3846C26.3414 9.34354 21.426 4.42943 15.385 4.42943C9.34394 4.42943 4.42856 9.34354 4.42856 15.3846C4.42856 15.9448 4.47086 16.5051 4.5542 17.0499C4.63112 17.5576 4.2824 18.0333 3.77343 18.1115C3.26189 18.1961 2.78881 17.841 2.71061 17.332ZM18.9673 15.3856C18.9673 15.6408 18.866 15.8856 18.6839 16.0664L14.2147 20.5164C13.8378 20.8921 13.2288 20.8908 12.8545 20.5138C12.4801 20.1369 12.4801 19.5292 12.857 19.1549L16.6429 15.3856L12.857 11.6164C12.4801 11.242 12.4801 10.6331 12.8545 10.2562C13.2288 9.88051 13.8378 9.87923 14.2147 10.2536L18.6839 14.7049C18.866 14.8844 18.9673 15.1292 18.9673 15.3856Z" fill="#4F4F4F"/>
</svg>
