<svg xmlns="http://www.w3.org/2000/svg" viewBox="0 0 982.82 287.47"><defs><style>.cls-1{fill:#fff;}</style></defs><g id="Layer_2" data-name="Layer 2"><g id="LOGO_01" data-name="LOGO 01"><path class="cls-1" d="M276.55,73.73h.1a15.83,15.83,0,0,1,15.72,15.94V213.55H263.62V123.08l-30.33,37a22.08,22.08,0,0,1-17.09,8.13h0a22.11,22.11,0,0,1-17.09-8.13l-30.33-37v90.47H140.05V73.73h15.71a15.63,15.63,0,0,1,12.16,5.85l38.86,48.22a12,12,0,0,0,18.75,0l38.84-48.2A15.64,15.64,0,0,1,276.55,73.73Z"/><path class="cls-1" d="M126.58,173.58c0,11.74-4.64,21-13.83,27.88S90.1,213.55,72.49,213.55H19.73c-11.59,0-19.73-8.27-19.73-20V73.64H65.89c17.61,0,29.54,1.21,38.73,7.86s13.84,15.85,13.84,27.5c0,13.79-5.62,23.29-16.84,28.67C117.78,142.46,126.58,153.32,126.58,173.58ZM72.83,184.87c15.2,0,22-4.54,22-15.11,0-12.13-3-16.17-15.77-16.17H59.3a13.25,13.25,0,0,1-13.18-13.32h0A13.26,13.26,0,0,1,59.3,126.94H72.48c11.9,0,14.24-3.56,14.24-14.52,0-10.27-5.91-12.44-20.53-12.73H42.7a11.31,11.31,0,0,0-11.25,11.37h0L30.37,173.5a11.31,11.31,0,0,0,11.25,11.37H72.83Z"/><path class="cls-1" d="M427.51,213.82l-12.05-35.38H341L329,213.82H300.94l39.33-110.77c5.3-14.94,13.59-23.81,22.46-27a44.21,44.21,0,0,1,15.42-2.41c9.06,0,16.78,2.21,23.24,6.55s11.47,12,15.23,22.85L456,213.81Zm-78.95-58h59.38L392.42,110c-2.6-7.9-7.42-11.86-14.27-11.86-6.65,0-11.37,4-14,11.86Z"/><path class="cls-1" d="M601.12,80.73a7.26,7.26,0,0,1-3,6.13c-2,1.51-5,2.26-8.82,2.26h-16v-31h14.07c7.76,0,11.75,3,11.75,8.08a6.49,6.49,0,0,1-4.23,6.5Q601.12,74.26,601.12,80.73Zm-11.93,3.5c3.82,0,6-1.38,6-4.21,0-3-1.89-4.38-5.69-4.38h-6.82v-4.5h5.53c3,0,5-1.53,5-4.27s-1.92-3.69-5.8-3.76h-8.34V84.23Z"/><path class="cls-1" d="M644.14,89.08l-2.7-7.91H624.79l-2.69,7.91h-6.28l8.8-24.78c1.19-3.34,3-5.33,5-6a10.13,10.13,0,0,1,3.45-.54,9.14,9.14,0,0,1,5.2,1.47,9.86,9.86,0,0,1,3.4,5.11l8.8,24.78Zm-17.67-13h13.29l-3.47-10.25c-.58-1.76-1.66-2.65-3.19-2.65s-2.55.89-3.13,2.65Z"/><path class="cls-1" d="M695,89.08h-7.29l-9.27-11V74.59h2.39c5.35,0,7.64-1.9,7.64-5.69s-2.29-5.7-7.64-5.7h-7.7V89.08h-5.77V58.16H681.2c4.35,0,7.65.94,9.9,2.86a9.79,9.79,0,0,1,3.36,7.88c0,5.17-2.74,8.8-8,10.15Z"/><path class="cls-1" d="M727.9,89.08c-11.15,0-16.44-5-16.44-15.46s5.29-15.46,16.44-15.46h8.89l.79,5H727.9c-7.14,0-10.5,3.35-10.5,10.42S720.76,84,727.9,84h9.68l-.79,5Z"/><path class="cls-1" d="M764.73,89.08q-9.45,0-9.45-9.27V58.16h24l.76,5H761v7.68h15.51v4.89H761.11v3.51c0,3.26,1.62,4.79,5.09,4.79h14.25l-.75,5Z"/><path class="cls-1" d="M807.82,89.08q-9.45,0-9.45-9.27V58.16h5.83V79.27c0,3.26,1.61,4.79,5.09,4.79h12.89l-.79,5Z"/><path class="cls-1" d="M836.3,73.62c0-10.81,5.29-15.9,16.48-15.9s16.4,5.09,16.4,15.9-5.29,15.9-16.4,15.9S836.3,84.43,836.3,73.62Zm24.42,8.11c1.66-1.7,2.48-4.4,2.48-8.13s-.82-6.43-2.48-8.13-4.29-2.55-7.94-2.55-6.34.84-8,2.55-2.5,4.42-2.5,8.13.84,6.43,2.5,8.13,4.34,2.57,8,2.57S859.06,83.46,860.72,81.73Z"/><path class="cls-1" d="M886.7,89.08l-.79-5h16.22c3.68,0,5.32-1.06,5.32-3.45s-1.94-3.63-5.73-4.34L896,75.24a15.55,15.55,0,0,1-7.29-3,7.38,7.38,0,0,1-2.44-5.95c0-5.18,3.78-8.13,10.83-8.13H910.6l.76,5h-14c-3.56,0-5.07.93-5.07,3s1.85,3.32,5.56,4l5.78,1.06c3.35.63,5.81,1.62,7.42,3a7.78,7.78,0,0,1,2.4,6.17c0,5.5-3.93,8.6-11.09,8.6Z"/><path class="cls-1" d="M602.46,124.14h4.46v30.93h-5.48v-21.7l-9.38,11.36h-4l-9.36-11.37v21.7h-5.43V124.14h4.46l12.36,15.16Z"/><path class="cls-1" d="M652,155.07l-2.7-7.92H632.69l-2.7,7.92h-6.27l8.8-24.78c1.18-3.35,3-5.33,5-6a9.89,9.89,0,0,1,3.45-.54,9.13,9.13,0,0,1,5.2,1.46,9.86,9.86,0,0,1,3.41,5.12l8.8,24.78Zm-17.67-13h13.29l-3.48-10.24c-.58-1.77-1.66-2.65-3.19-2.65s-2.54.88-3.13,2.65Z"/><path class="cls-1" d="M702.91,155.07h-7.29l-9.28-11v-3.5h2.4c5.35,0,7.63-1.89,7.63-5.69s-2.28-5.69-7.63-5.69H681v25.88h-5.78V124.14h13.82q6.54,0,9.9,2.87a9.78,9.78,0,0,1,3.37,7.87c0,5.18-2.74,8.8-8,10.16Z"/><path class="cls-1" d="M746.45,124.14v5H734.61v25.88h-5.85V129.19H716.94v-5Z"/><path class="cls-1" d="M763.53,155.07V124.14h5.78v30.93Z"/><path class="cls-1" d="M813.09,124.14h5.41v30.93h-4.4l-19.05-22v22h-5.43V124.14h4.46l19,22Z"/><path class="cls-1" d="M837.67,155.07l-.8-5h16.22c3.69,0,5.33-1,5.33-3.45s-1.94-3.62-5.74-4.33L847,141.23a15.49,15.49,0,0,1-7.3-3,7.4,7.4,0,0,1-2.43-6c0-5.18,3.77-8.13,10.82-8.13h13.48l.76,5.05h-14c-3.56,0-5.07.92-5.07,3s1.86,3.33,5.57,4l5.78,1c3.34.63,5.8,1.62,7.42,3a7.84,7.84,0,0,1,2.39,6.17c0,5.5-3.93,8.61-11.09,8.61Z"/><path class="cls-1" d="M598.16,220.59l-2.69-7.92H578.81l-2.69,7.92h-6.28l8.8-24.78c1.19-3.35,3-5.33,5-6a9.66,9.66,0,0,1,3.45-.54,9.06,9.06,0,0,1,5.28,1.46,9.84,9.84,0,0,1,3.4,5.12l8.8,24.78Zm-17.66-13h13.28l-3.47-10.24c-.58-1.77-1.66-2.65-3.19-2.65s-2.55.88-3.13,2.65Z"/><path class="cls-1" d="M634.24,189.66c11,0,16.22,5,16.22,15.46s-5.18,15.47-16.22,15.47H621.37V189.66Zm0,25.9c7,0,10.24-3.36,10.24-10.44s-3.25-10.39-10.24-10.39h-7.08v20.85Z"/><path class="cls-1" d="M677.37,219.73a9.28,9.28,0,0,1-3.58-5.25l-8.22-24.82h6.37L679.23,213c.56,1.77,1.61,2.66,3.19,2.66s2.61-.89,3.17-2.66l7.29-23.29h6.28l-8.22,24.82a9.57,9.57,0,0,1-3.34,5.12A10,10,0,0,1,677.37,219.73Z"/><path class="cls-1" d="M714.37,205.12c0-10.8,5.28-15.89,16.48-15.89s16.39,5.09,16.39,15.89S742,221,730.85,221,714.37,215.93,714.37,205.12Zm24.42,8.13c1.66-1.7,2.48-4.39,2.48-8.13s-.82-6.42-2.48-8.13-4.3-2.54-7.94-2.54-6.34.84-8,2.54-2.51,4.42-2.51,8.13.85,6.43,2.51,8.13,4.33,2.57,8,2.57,6.24-.86,7.9-2.57Z"/><path class="cls-1" d="M786.73,205.49h5.82v15.1H780.67c-11.15,0-16.44-5-16.44-15.47s5.29-15.46,16.44-15.46h9.94l.76,5.07h-10.7c-7.14,0-10.5,3.34-10.5,10.41s3.36,10.44,10.5,10.44h6.06Z"/><path class="cls-1" d="M836.37,220.59l-2.69-7.92H817l-2.7,7.92H808l8.8-24.78c1.19-3.35,3-5.33,5-6a9.66,9.66,0,0,1,3.45-.54,9.13,9.13,0,0,1,5.2,1.46,9.84,9.84,0,0,1,3.4,5.12l8.8,24.78Zm-17.66-13H832l-3.47-10.24c-.58-1.77-1.66-2.65-3.19-2.65s-2.55.88-3.13,2.65Z"/><path class="cls-1" d="M872.43,189.66c11,0,16.22,5,16.22,15.46s-5.18,15.47-16.22,15.47H859.57V189.66Zm0,25.9c7,0,10.24-3.36,10.24-10.44s-3.25-10.39-10.24-10.39h-7.06v20.85Z"/><path class="cls-1" d="M905.62,205.12c0-10.8,5.28-15.89,16.47-15.89s16.4,5.09,16.4,15.89S933.2,221,922.09,221,905.62,215.93,905.62,205.12ZM930,213.25c1.66-1.7,2.48-4.39,2.48-8.13s-.82-6.42-2.48-8.13-4.29-2.54-7.94-2.54-6.34.84-8,2.54-2.5,4.42-2.5,8.13.84,6.43,2.5,8.13,4.34,2.57,8,2.57S928.37,215,930,213.25Z"/><path class="cls-1" d="M956,220.59l-.8-5h16.22c3.69,0,5.32-1.05,5.32-3.45s-1.94-3.62-5.73-4.33l-5.66-1.08a15.45,15.45,0,0,1-7.29-3,7.4,7.4,0,0,1-2.43-6c0-5.18,3.77-8.13,10.82-8.13H980l.76,5.05h-14c-3.56,0-5.07.92-5.07,3s1.85,3.33,5.56,4l5.79,1c3.34.63,5.8,1.62,7.42,3a7.84,7.84,0,0,1,2.39,6.17c0,5.5-3.93,8.61-11.09,8.61Z"/><rect class="cls-1" x="511.04" width="4" height="287.47"/></g></g></svg>