<svg width="50" height="50" viewBox="0 0 50 50" fill="none" xmlns="http://www.w3.org/2000/svg">
<rect width="50" height="50" rx="6.94444" fill="black"/>
<path d="M14.4164 21.3161L14.0396 17.8223C14.0203 17.6496 13.9277 17.4943 13.7835 17.3971L11.3722 15.7786C10.892 15.4571 11.1181 14.7061 11.6972 14.7061L17.9515 14.6953C18.3864 14.6953 18.6706 15.1528 18.4769 15.5413L15.5209 21.5103C15.2625 22.039 14.481 21.8988 14.4164 21.3161Z" fill="#70EAA6"/>
<path d="M15.452 31.8503C15.3313 32.108 15.3339 32.4066 15.459 32.6623L17.2503 35.5106C17.5641 36.1516 18.4813 36.1444 18.783 35.4986L28.4151 15.7908C28.6782 15.2293 28.2678 14.5835 27.6451 14.5835H24.535C24.1702 14.5835 23.8385 14.7945 23.6837 15.1247L15.452 31.8503Z" fill="white"/>
<path d="M25.4375 31.7871C25.3174 32.0435 25.3199 32.3406 25.4445 32.5949L27.2004 35.4281C27.5126 36.0657 28.4252 36.0585 28.7255 35.4161L38.3093 15.8128C38.5711 15.2543 38.1628 14.6118 37.5432 14.6118H34.475C34.1121 14.6118 33.782 14.8217 33.628 15.1502L25.4375 31.7871Z" fill="white"/>
</svg>
