<svg xmlns="http://www.w3.org/2000/svg" viewBox="0 0 414.19 377.71"><defs><style>.cls-1{fill:#fff;}</style></defs><g id="Layer_2" data-name="Layer 2"><g id="Camada_1" data-name="Camada 1"><path class="cls-1" d="M389.82,170.32l-2,.71L99,266.58,210.16,3.83a2.74,2.74,0,0,0-4-3.37L48,103a10.47,10.47,0,0,0-4.75,8.19l-2.84,49.33A10.48,10.48,0,0,0,57.86,169L154.8,82l-105.57,201-6.87,2.28L29.74,289a10.44,10.44,0,0,0-4.69,2.87L14.29,303.31a10.44,10.44,0,0,0-2.61,5L.23,361.7A10.47,10.47,0,0,0,6,373.35l7,3.34a10.46,10.46,0,0,0,9.51-.25L392.06,175.32A2.75,2.75,0,0,0,389.82,170.32Z"/><path class="cls-1" d="M406.6,91a6.37,6.37,0,0,0-3.84-.75,9,9,0,0,0-4.22,1.56,5.72,5.72,0,0,0-2.48,3.62q-1.94,10.62-4.23,20.39a95.06,95.06,0,0,1-5.74,17.39,61.55,61.55,0,0,0,.31-6.49c0-2.16-.08-4.32-.21-6.5l-.16.05c-.13-1.47-.4-3.42-.79-5.86a51.93,51.93,0,0,0-1.95-7.77A46.14,46.14,0,0,0,380,99,31.33,31.33,0,0,0,375,92.22l.26.79a13.31,13.31,0,0,0-7.48-5.94,17.91,17.91,0,0,0-11.07-.39,24.59,24.59,0,0,0-13.52,8.92A46.58,46.58,0,0,0,335.52,111a72,72,0,0,0-2.82,18.27c-.06,2.13-.05,4.19,0,6.22a95.29,95.29,0,0,1-5.7,17.18,61.42,61.42,0,0,0,.31-6.49c0-2.16-.08-4.32-.21-6.5l-.16.06c-.13-1.48-.4-3.43-.79-5.87a51.84,51.84,0,0,0-1.94-7.77,47.42,47.42,0,0,0-3.32-7.66,31.57,31.57,0,0,0-4.94-6.78l.26.79a13.32,13.32,0,0,0-7.47-5.94,17.91,17.91,0,0,0-11.07-.38,24.62,24.62,0,0,0-13.53,8.92,46.23,46.23,0,0,0-7.7,15.4,71.74,71.74,0,0,0-2.83,18.27c0,.71,0,1.39,0,2.08-.33,1.12-.65,2.23-1,3.33a102.68,102.68,0,0,1-7.15,17.24c.07-1.54.08-3,0-4.47s-.12-2.91-.15-4.41c-.11-1.72-.43-4.38-1-8a71.14,71.14,0,0,0-2.76-11.26,45.3,45.3,0,0,0-3.46-7.88,23.39,23.39,0,0,0-5-6.3,14.51,14.51,0,0,0-6.94-3.32,17.3,17.3,0,0,0-9.18,1.1,18.73,18.73,0,0,0-6.61,4.1,24.82,24.82,0,0,0-4.57,6.06q-2.85-15.52-5.52-29.26t-4.71-22.53a3,3,0,0,0-1.83-1.85,10.9,10.9,0,0,0-3.39-.72,20.57,20.57,0,0,0-4.24.17,24.61,24.61,0,0,0-4.31,1,17.24,17.24,0,0,0-5.38,2.82,4.55,4.55,0,0,0-2,4.15,16,16,0,0,1,1.07,2.71c.47,1.43,1,3.18,1.56,5.27s1.2,4.45,1.89,7.08,1.35,5.42,2,8.37l0-.16q1.23,7.47,3.09,17.37t3.87,20.78c.49,2.71,1,5.4,1.49,8.09q-1.66,8.72-3.57,16.85A94.44,94.44,0,0,1,200,194.5a58.86,58.86,0,0,0,.31-6.49c0-2.16-.08-4.32-.21-6.5l-.16.06c-.13-1.48-.4-3.43-.79-5.87a51.84,51.84,0,0,0-1.94-7.77,47.42,47.42,0,0,0-3.32-7.66,31.82,31.82,0,0,0-4.94-6.78l.26.79a13.32,13.32,0,0,0-7.47-5.94,17.91,17.91,0,0,0-11.07-.38,24.62,24.62,0,0,0-13.53,8.92,46.23,46.23,0,0,0-7.7,15.4,71.74,71.74,0,0,0-2.83,18.27,97.54,97.54,0,0,0,1,17.54,28.12,28.12,0,0,0,.8,4c.44,1.66,1,3.44,1.59,5.34a52.76,52.76,0,0,0,3.62,8.35,24.57,24.57,0,0,0,5.68,7.15,16.58,16.58,0,0,0,8.14,3.71q4.72.81,11.05-1.8l.16-.05-1.48.31a27,27,0,0,0,11.08-7.85,43.4,43.4,0,0,0,7.3-12.39,34.33,34.33,0,0,0,10.85-10.4,72.75,72.75,0,0,0,7.33-13.88c.29-.74.56-1.48.83-2.22q.41,2.21.78,4.32,1.55,8.67,2.47,14.41a36.4,36.4,0,0,1,.76,6.84,3.36,3.36,0,0,0,1.63,2.27,7.45,7.45,0,0,0,3.12,1,18.14,18.14,0,0,0,4-.09,22.13,22.13,0,0,0,4.08-.91c.63-.21,1.25-.44,1.87-.7s1.22-.55,1.81-.86a9.27,9.27,0,0,0,3,.22c1-.11,2.14-.24,3.37-.41a23.1,23.1,0,0,0,12.94-7.5,38.59,38.59,0,0,0,7.44-13.57,50.31,50.31,0,0,0,10.33-11.63q2.37-3.63,4.39-7.39c.13.42.25.83.4,1.26a52.76,52.76,0,0,0,3.62,8.35,24.57,24.57,0,0,0,5.68,7.15,16.67,16.67,0,0,0,8.14,3.71q4.72.81,11-1.8l.16-.05-1.48.31a27,27,0,0,0,11.08-7.85,43.4,43.4,0,0,0,7.3-12.39,34.2,34.2,0,0,0,10.84-10.4c1.14-1.67,2.17-3.4,3.16-5.15a54.3,54.3,0,0,0,3.15,7,24.36,24.36,0,0,0,5.68,7.14,16.45,16.45,0,0,0,8.14,3.71q4.72.81,11.05-1.8l.15-.05-1.47.31A26.9,26.9,0,0,0,374.29,166a43.6,43.6,0,0,0,7.31-12.38,34.52,34.52,0,0,0,10.84-10.4,72,72,0,0,0,7.34-13.89,98.21,98.21,0,0,0,4.55-14.62c1.08-4.85,1.9-9.12,2.43-12.8l.11-.21L408,94.5C408.15,92.82,407.68,91.66,406.6,91ZM174.88,222.39l-.16-.47q-2.52-.22-4.86-7.33l-.21-.63a20.06,20.06,0,0,0,3.9,3.09,14.07,14.07,0,0,0,4.86,1.72A5.79,5.79,0,0,1,174.88,222.39ZM180.76,210a11.07,11.07,0,0,1-4-1.94,15.79,15.79,0,0,1-3.28-3.3,26.47,26.47,0,0,1-2.4-3.84,16.36,16.36,0,0,1-1.41-3.74q-.68-3.1-1.19-6t-.87-6.63a5.46,5.46,0,0,0-.62-1.37c.11-3.19.31-6.23.58-9.12a60.8,60.8,0,0,1,1.24-7.94,24.49,24.49,0,0,1,2.13-6,9,9,0,0,1,3-3.54c.46,0,.89.58,1.31,1.85a15.84,15.84,0,0,1,.72,3.78l1.15,3.48a75.53,75.53,0,0,1,2.28,9.06,92.41,92.41,0,0,1,1.38,11.1q.39,6.53.53,12.78A69.13,69.13,0,0,1,180.76,210Zm58.88-7.83c-1.13.13-1.91-.66-2.36-2.38a9.5,9.5,0,0,0,2.1.53l2.21.33A3.23,3.23,0,0,1,239.64,202.12Zm4.67-12.4A9.24,9.24,0,0,1,240.4,188a16.81,16.81,0,0,1-3.28-3.3,25.76,25.76,0,0,1-2.45-4,29.3,29.3,0,0,1-1.67-4l-1.14-6.11-.35-4.26-.15-2.58-.15-.47q0-2.79-.09-5.31a20.57,20.57,0,0,1,.28-4.21l.32-1.15c.18-.88.45-2.08.83-3.6a36,36,0,0,1,1.46-4.6,26.09,26.09,0,0,1,2-4.17,7.57,7.57,0,0,1,2.45-2.65,7.77,7.77,0,0,0,.52,2.11q.57,1.74,1.41,4.26a77,77,0,0,1,2.41,10.24q1.09,6.29,1.71,12.39.24,6,.25,12.18T244.31,189.72Zm57.57-9.15-.16-.47q-2.52-.22-4.86-7.33l-.21-.63a19.82,19.82,0,0,0,3.91,3.09,13.94,13.94,0,0,0,4.85,1.72A5.79,5.79,0,0,1,301.88,180.57Zm5.88-12.44a11.07,11.07,0,0,1-4-1.94,15.79,15.79,0,0,1-3.28-3.3,26.47,26.47,0,0,1-2.4-3.84,16.36,16.36,0,0,1-1.41-3.74q-.68-3.1-1.19-6t-.87-6.63a5.46,5.46,0,0,0-.62-1.37c.11-3.19.31-6.23.58-9.12a60.8,60.8,0,0,1,1.24-7.94,24.49,24.49,0,0,1,2.13-6,9,9,0,0,1,3-3.54c.46,0,.89.58,1.31,1.85a15.84,15.84,0,0,1,.72,3.78l1.15,3.48a75.83,75.83,0,0,1,2.28,9.05,92.84,92.84,0,0,1,1.38,11.11c.26,4.35.44,8.6.53,12.78A69.13,69.13,0,0,1,307.76,168.13Zm53.19-7-.15-.48c-1.69-.14-3.31-2.59-4.87-7.32l-.21-.64a19.66,19.66,0,0,0,3.91,3.09,13.93,13.93,0,0,0,4.86,1.73A5.85,5.85,0,0,1,361,161.12Zm5.89-12.45a11,11,0,0,1-4-1.93,16,16,0,0,1-3.27-3.3,27.19,27.19,0,0,1-2.41-3.85,16,16,0,0,1-1.4-3.74q-.68-3.09-1.19-6t-.87-6.63a5,5,0,0,0-.63-1.36c.12-3.19.31-6.24.59-9.13a59.25,59.25,0,0,1,1.24-7.93,24.76,24.76,0,0,1,2.12-6,9.1,9.1,0,0,1,3-3.54c.45,0,.89.58,1.31,1.84a15.83,15.83,0,0,1,.72,3.79l1.14,3.48a72.17,72.17,0,0,1,2.28,9,88.76,88.76,0,0,1,1.38,11.1c.27,4.35.44,8.61.54,12.78A70.18,70.18,0,0,1,366.84,148.67Z"/><path class="cls-1" d="M330.7,238.09a3.73,3.73,0,0,1,2.73,0,4.28,4.28,0,0,1,2.13,2,6.32,6.32,0,0,1,.33,5.49,9,9,0,0,1-4.37,4.69l-9.08,5L317,235.9l-.6-2.19,8.36-4.58a6.21,6.21,0,0,1,4.25-.85,4.3,4.3,0,0,1,3,2.3,5.62,5.62,0,0,1,.57,4.09,5.87,5.87,0,0,1-1.9,3.32Zm-9.33,4,6.31-3.45a5.21,5.21,0,0,0,2.52-2.9,4.17,4.17,0,0,0-.24-3.51,2.74,2.74,0,0,0-1.92-1.49,4,4,0,0,0-2.67.56l-6.08,3.32Zm9.4,6.06a5.73,5.73,0,0,0,2.81-3.08,4.3,4.3,0,0,0-.26-3.66,2.82,2.82,0,0,0-1.91-1.51,3.81,3.81,0,0,0-2.67.53l-6.8,3.72,2.15,7.66Z"/><path class="cls-1" d="M340.41,237.49a5.27,5.27,0,0,0,3,2.67,5.11,5.11,0,0,0,4.05-.61,6.22,6.22,0,0,0,3.32-5.86l2.24-.52a8.7,8.7,0,0,1-1.13,4.92,9,9,0,0,1-3.55,3.47,7.24,7.24,0,0,1-5.58.79,7.13,7.13,0,0,1-4.33-3.71,9,9,0,0,1-.74-7.35,9.32,9.32,0,0,1,4.46-5.57,6.51,6.51,0,0,1,6-.44,8.12,8.12,0,0,1,4.24,5L340.17,237Zm-.37-6.61a7.61,7.61,0,0,0-.44,4.3l10-5.48a5.05,5.05,0,0,0-2.87-2.6,4.63,4.63,0,0,0-3.72.53A6.41,6.41,0,0,0,340,230.88Z"/><path class="cls-1" d="M371.7,228.3l-2.2,1.2-.64-2.32a8.46,8.46,0,0,1-4.32,5.52,6.49,6.49,0,0,1-5.77.43,7.29,7.29,0,0,1-4.16-4.68,9.71,9.71,0,0,1-.07-6.86,9,9,0,0,1,4.25-5,7.06,7.06,0,0,1,3.88-1,5.59,5.59,0,0,1,3.36,1.39l-1-3.4,2.2-1.21Zm-4.53-1.57a7.22,7.22,0,0,0,.06-5.18,5.11,5.11,0,0,0-3.09-3.4,5,5,0,0,0-4.25.36,6.79,6.79,0,0,0-3.19,3.7,7.09,7.09,0,0,0,.05,5.07,5.46,5.46,0,0,0,3,3.53,4.88,4.88,0,0,0,4.31-.39A6.77,6.77,0,0,0,367.17,226.73Z"/><path class="cls-1" d="M389.56,218.49l-2.2,1.2L386.6,217a7.35,7.35,0,0,1-3.89,5.69,5.25,5.25,0,0,1-5.06.41,6.29,6.29,0,0,1-3.15-4.23l-2.54-9,2.2-1.2,2.55,9.14a4.29,4.29,0,0,0,2.17,2.95,3.67,3.67,0,0,0,3.42-.33,5.81,5.81,0,0,0,2.91-3.54,9.59,9.59,0,0,0-.15-5.39l-2.14-7.63,2.2-1.2Z"/><path class="cls-1" d="M395.78,209.29a3.22,3.22,0,0,0,1.25,2,1.88,1.88,0,0,0,1.94-.13,5.93,5.93,0,0,0,2.24-2.41l1.27,1.79a6.84,6.84,0,0,1-2.82,2.91,4.08,4.08,0,0,1-3.68.43,4.7,4.7,0,0,1-2.38-3.3l-2.47-8.85-2.83,1.54-.6-2,2.86-1.57-1.43-5,2.17-1.19,1.43,5.05,5-2.77.57,2.06-5.05,2.77Z"/><path class="cls-1" d="M411.7,212.71l-2.54,1.39.72-7-10.62-12.15,2.31-1.26,8.65,10,1.54-15.54,2.43-1.33Z"/></g></g></svg>