<svg xmlns="http://www.w3.org/2000/svg" viewBox="0 0 360 120.03"><defs><style>.cls-1{fill:#fff;}</style></defs><g id="Layer_2" data-name="Layer 2"><g id="Layout"><path class="cls-1" d="M102.61,15.66h27.88l-.06,7.27H111.37v9.53h17.51v7.32H111.37V54.46h-8.76Z"/><path class="cls-1" d="M157.51,28.52q3.74,4.15,3.74,11.59c0,.88,0,1.57-.06,2H139.8a7.58,7.58,0,0,0,7.7,6,10.38,10.38,0,0,0,4.05-.8A10.64,10.64,0,0,0,155,45l4.49,4.54A15.1,15.1,0,0,1,154,53.44a18.72,18.72,0,0,1-7.24,1.36,17.15,17.15,0,0,1-8.23-1.89,13.25,13.25,0,0,1-5.43-5.32,16.07,16.07,0,0,1-1.91-7.93,16,16,0,0,1,1.94-8,13.52,13.52,0,0,1,5.43-5.38,16.29,16.29,0,0,1,8-1.91Q153.76,24.37,157.51,28.52Zm-4.3,8.6a6.77,6.77,0,0,0-1.88-4.72,6.4,6.4,0,0,0-4.71-1.77A6.48,6.48,0,0,0,142,32.38a8.12,8.12,0,0,0-2.36,4.74Z"/><path class="cls-1" d="M188.93,28.52q3.75,4.15,3.74,11.59c0,.88,0,1.57,0,2h-21.4a7.6,7.6,0,0,0,7.71,6,10.36,10.36,0,0,0,4-.8,10.68,10.68,0,0,0,3.5-2.35L191,49.53a15.22,15.22,0,0,1-5.52,3.91,18.63,18.63,0,0,1-7.23,1.36A17.12,17.12,0,0,1,170,52.91a13.13,13.13,0,0,1-5.43-5.32,16,16,0,0,1-1.92-7.93,16.09,16.09,0,0,1,1.94-8A13.64,13.64,0,0,1,170,26.28a16.31,16.31,0,0,1,8-1.91Q185.19,24.37,188.93,28.52Zm-4.29,8.6a6.82,6.82,0,0,0-1.89-4.72A6.37,6.37,0,0,0,178,30.63a6.48,6.48,0,0,0-4.63,1.75,8.11,8.11,0,0,0-2.35,4.74Z"/><path class="cls-1" d="M226,13.34V54.46h-8.48V50.08a10.41,10.41,0,0,1-4,3.52,11.92,11.92,0,0,1-5.43,1.2,14,14,0,0,1-7.4-1.92,12.8,12.8,0,0,1-4.94-5.4,17.81,17.81,0,0,1-1.74-8,17.42,17.42,0,0,1,1.72-7.92,12.56,12.56,0,0,1,4.87-5.32,13.89,13.89,0,0,1,7.26-1.89A11.08,11.08,0,0,1,217.56,29V13.34ZM215.48,45.62a8.52,8.52,0,0,0,2.08-6,8.52,8.52,0,0,0-2.08-5.95,7.43,7.43,0,0,0-10.75,0,8.74,8.74,0,0,0-2.14,5.95,8.75,8.75,0,0,0,2.14,6,7.43,7.43,0,0,0,10.75,0Z"/><path class="cls-1" d="M258.49,26.28a12.84,12.84,0,0,1,4.93,5.4,17.68,17.68,0,0,1,1.75,8,17.4,17.4,0,0,1-1.72,7.9,12.68,12.68,0,0,1-4.85,5.29,13.84,13.84,0,0,1-7.29,1.89,12.17,12.17,0,0,1-5.51-1.2,11,11,0,0,1-4.08-3.46v4.32h-8.53V13.34h8.53V29a10.61,10.61,0,0,1,4-3.46,12,12,0,0,1,5.4-1.19A14,14,0,0,1,258.49,26.28Zm-4,19.12a8.6,8.6,0,0,0,2-6,8.51,8.51,0,0,0-2-5.9,6.81,6.81,0,0,0-5.32-2.3,6.9,6.9,0,0,0-5.35,2.3,8.48,8.48,0,0,0-2.08,5.9,8.56,8.56,0,0,0,2.08,6,6.94,6.94,0,0,0,5.35,2.27A6.81,6.81,0,0,0,254.47,45.4Z"/><path class="cls-1" d="M286.45,54.46V51a9.49,9.49,0,0,1-3.88,2.88,14,14,0,0,1-5.49,1,10.54,10.54,0,0,1-7.48-2.58,8.74,8.74,0,0,1-2.77-6.73,7.93,7.93,0,0,1,3-6.57q3-2.36,8.4-2.41h8.2V36a4.5,4.5,0,0,0-1.58-3.69,7.09,7.09,0,0,0-4.62-1.3,18.51,18.51,0,0,0-8.87,2.6l-2.66-5.87a36.09,36.09,0,0,1,6.65-2.61,26.5,26.5,0,0,1,6.82-.83q6,0,9.28,2.83A9.93,9.93,0,0,1,294.76,35l.06,19.45Zm-2.38-7a4.94,4.94,0,0,0,2.32-3.22V41.6h-6.7a6.68,6.68,0,0,0-3.69.81A2.88,2.88,0,0,0,274.81,45a3.37,3.37,0,0,0,1.25,2.74,5.23,5.23,0,0,0,3.41,1A8.2,8.2,0,0,0,284.07,47.48Z"/><path class="cls-1" d="M313.77,31.63a6.78,6.78,0,0,0-5.23,2.19,8.19,8.19,0,0,0-2,5.79,8.49,8.49,0,0,0,2,5.85,6.53,6.53,0,0,0,5.1,2.24,7.7,7.7,0,0,0,6.93-3.49l5.87,4a12.68,12.68,0,0,1-5.29,4.88,17.54,17.54,0,0,1-8,1.72,16.16,16.16,0,0,1-7.92-1.89,13.36,13.36,0,0,1-5.35-5.32A16.07,16.07,0,0,1,298,39.66a16.29,16.29,0,0,1,1.91-8,13.46,13.46,0,0,1,5.38-5.38,16.25,16.25,0,0,1,8-1.91A17,17,0,0,1,320.87,26a13.29,13.29,0,0,1,5.32,4.63l-5.76,4.16A8.14,8.14,0,0,0,313.77,31.63Z"/><path class="cls-1" d="M349.91,54.46l-7.2-12.13-3.83,4v8.09h-8.53V13.34h8.53V36L349.8,24.7h9.7L348.58,36.17,360,54.46Z"/><path class="cls-1" d="M93.71,62.37h12.88V86.18h25.85V62.37h12.89v57.08H132.44V97H106.59v22.5H93.71Z"/><path class="cls-1" d="M194.42,75.58v43.87H181.94v-7.74q-4.49,8.24-14.68,8.23-7.24,0-11.53-4.52t-4.29-12.28V75.58H164v24a9.24,9.24,0,0,0,2.2,6.52,7.84,7.84,0,0,0,6,2.37,9,9,0,0,0,7.09-3.19,12,12,0,0,0,2.61-8V75.58Z"/><path class="cls-1" d="M241.11,79.66q4.37,4.56,4.36,12.23v27.56H232.91V95.56A9,9,0,0,0,230.59,89a8.36,8.36,0,0,0-6.32-2.41,9.38,9.38,0,0,0-7.34,3.22,11.87,11.87,0,0,0-2.69,8v21.61H201.68V75.58h12.56v7.67q4.56-8,15.17-8.16Q236.75,75.09,241.11,79.66Z"/><path class="cls-1" d="M278.58,117a20.28,20.28,0,0,1-5.42,2.24,23.64,23.64,0,0,1-6,.78,14.18,14.18,0,0,1-10-3.51q-3.82-3.51-3.83-10V86.18h-6.11V77.54h6.11V65.47h12.48V77.54h11.91v8.72H265.86v18.11q0,5.05,4,5a14.09,14.09,0,0,0,6.12-1.63Z"/><path class="cls-1" d="M315.89,81.29q5.5,6.12,5.5,17c0,1.31,0,2.31-.08,3H289.83a11.17,11.17,0,0,0,11.34,8.81,15.52,15.52,0,0,0,5.95-1.18,15.73,15.73,0,0,0,5.14-3.47l6.61,6.69a22.22,22.22,0,0,1-8.12,5.75,27.34,27.34,0,0,1-10.64,2A25.26,25.26,0,0,1,288,117.17a19.45,19.45,0,0,1-8-7.83,23.54,23.54,0,0,1-2.82-11.66,23.6,23.6,0,0,1,2.86-11.78A19.94,19.94,0,0,1,288,78a24,24,0,0,1,11.74-2.82Q310.39,75.17,315.89,81.29Zm-6.32,12.64A9.93,9.93,0,0,0,306.8,87a9.37,9.37,0,0,0-6.93-2.61A9.52,9.52,0,0,0,293.06,87a11.86,11.86,0,0,0-3.47,7Z"/><path class="cls-1" d="M343.25,77.29a17.51,17.51,0,0,1,8.56-2.2V86.92a15.59,15.59,0,0,0-2-.09q-5.79,0-9.17,3.14a10.85,10.85,0,0,0-3.38,8.36v21.12H324.74V75.58H337.3v7.91A16,16,0,0,1,343.25,77.29Z"/><path class="cls-1" d="M53.22,46.08A7.13,7.13,0,1,1,46.1,39,7.13,7.13,0,0,1,53.22,46.08Z"/><path class="cls-1" d="M46.1,22.53A23.56,23.56,0,1,0,69.65,46.08,23.59,23.59,0,0,0,46.1,22.53Zm0,37.26A13.71,13.71,0,1,1,59.81,46.08,13.72,13.72,0,0,1,46.1,59.79Z"/><path class="cls-1" d="M44.28,0A46.09,46.09,0,0,0,33.19,90.34l.8.23c.68.18,1.37.35,2.08.5L34.67,99a2.25,2.25,0,0,0,3.5,2.23l14.19-9.93a2.25,2.25,0,0,0,.55-3.14L43,74a2.25,2.25,0,0,0-4.06.9l-1,5.83c-.7-.17-1.39-.35-2.08-.55L35,79.92a35.59,35.59,0,1,1,21.68.15,2.26,2.26,0,0,0-1.14,3.45l3.27,4.67a2.93,2.93,0,0,0,3.44,1A46.09,46.09,0,0,0,44.28,0Z"/></g></g></svg>