<svg width="130" height="19" viewBox="0 0 130 19" fill="none" xmlns="http://www.w3.org/2000/svg">
<path d="M107.361 0.105469H90.5051C90.0346 0.105469 89.6536 0.48581 89.6536 0.955522V3.26875C89.6536 3.73846 90.0346 4.1188 90.5051 4.1188H96.6804C96.8137 4.1188 96.922 4.22688 96.922 4.35989V17.782C96.922 18.2517 97.303 18.6321 97.7735 18.6321H100.091C100.561 18.6321 100.942 18.2517 100.942 17.782V4.35989C100.942 4.22688 101.051 4.1188 101.184 4.1188H107.361C107.832 4.1188 108.213 3.73846 108.213 3.26875V0.955522C108.213 0.48581 107.832 0.105469 107.361 0.105469Z" fill="white"/>
<path d="M57.5202 0.105469H46.5916C45.5423 0.105469 44.6449 0.479575 43.8975 1.22571C43.15 1.97184 42.7752 2.86762 42.7752 3.91512V14.8245C42.7752 15.872 43.1479 16.7678 43.8975 17.5139C44.6449 18.26 45.5423 18.6341 46.5916 18.6341H57.5202C58.5508 18.6341 59.444 18.26 60.2019 17.5139C60.9577 16.7678 61.3366 15.872 61.3366 14.8245V3.91304C61.3366 2.86762 60.9577 1.96977 60.2019 1.22363C59.444 0.479575 58.5508 0.105469 57.5202 0.105469ZM57.3449 13.7687C57.3449 14.2384 56.9639 14.6187 56.4933 14.6187H47.6222C47.1517 14.6187 46.7707 14.2384 46.7707 13.7687V4.96885C46.7707 4.49914 47.1517 4.1188 47.6222 4.1188H56.4933C56.9639 4.1188 57.3449 4.49914 57.3449 4.96885V13.7687Z" fill="white"/>
<path d="M36.0708 0.13047H22.2023C21.7318 0.13047 21.3508 0.510812 21.3508 0.980523V17.7821C21.3508 18.2518 21.7318 18.6321 22.2023 18.6321H24.4946C24.9652 18.6321 25.3462 18.2518 25.3462 17.7821V13.405C25.3462 12.9374 25.7251 12.5591 26.1936 12.555L30.2577 12.5363C30.5097 12.5342 30.7512 12.6464 30.9136 12.8397L35.5315 18.3308C35.6939 18.524 35.9313 18.6342 36.1832 18.6342H39.0585C39.529 18.6342 39.91 18.2539 39.91 17.7841V17.5825C39.91 17.3809 39.8393 17.1856 39.7081 17.0318L35.8896 12.5342H36.0708C37.118 12.5342 38.0216 12.158 38.7774 11.4015C39.5332 10.647 39.9121 9.7554 39.9121 8.72453V3.94012C39.9121 2.91133 39.5332 2.01971 38.7774 1.26318C38.0216 0.508733 37.118 0.13047 36.0708 0.13047ZM35.8647 8.10517C35.8647 8.3338 35.6773 8.52085 35.4482 8.52085H25.7626C25.5336 8.52085 25.3462 8.3338 25.3462 8.10517V4.53453C25.3462 4.30591 25.5336 4.11886 25.7626 4.11886H35.4482C35.6773 4.11886 35.8647 4.30591 35.8647 4.53453V8.10517Z" fill="white"/>
<path d="M14.7179 0.105565H3.81429C2.76703 0.105565 1.86967 0.479671 1.12222 1.22581C0.374767 1.97194 0 2.86772 0 3.91314V14.8225C0 15.87 0.374767 16.7658 1.12222 17.5119C1.86967 18.258 2.76703 18.6322 3.81638 18.6322H14.72C15.7673 18.6322 16.6709 18.258 17.4267 17.5119C18.1824 16.7658 18.5614 15.87 18.5614 14.8225V8.52088C18.5614 8.13639 18.2491 7.82671 17.866 7.82671H11.1868C10.8016 7.82671 10.4914 8.13846 10.4914 8.52088V11.1459C10.4914 11.5304 10.8037 11.84 11.1868 11.84H13.8164C14.2016 11.84 14.5118 12.1518 14.5118 12.5342V13.9226C14.5118 14.3071 14.1995 14.6167 13.8164 14.6167H4.69291C4.30774 14.6167 3.99751 14.305 3.99751 13.9226V4.81515C3.99751 4.43065 4.30982 4.12098 4.69291 4.12098H13.8164C14.2016 4.12098 14.5118 4.43273 14.5118 4.81515V4.96895C14.5118 5.35345 14.8241 5.66313 15.2072 5.66313H17.8639C18.2491 5.66313 18.5593 5.35137 18.5593 4.96895V3.91314C18.5593 2.86772 18.1804 1.96986 17.4246 1.22373C16.6688 0.479671 15.7673 0.105565 14.7179 0.105565Z" fill="white"/>
<path d="M129.148 0.105469H126.856C126.386 0.105469 126.005 0.48581 126.005 0.955522V6.94746C126.005 7.17608 125.819 7.36314 125.588 7.36314H115.465C115.236 7.36314 115.049 7.17816 115.049 6.94746V0.955522C115.049 0.48581 114.668 0.105469 114.197 0.105469H111.905C111.434 0.105469 111.053 0.48581 111.053 0.955522V17.782C111.053 18.2517 111.434 18.6321 111.905 18.6321H114.197C114.668 18.6321 115.049 18.2517 115.049 17.782V11.7921C115.049 11.5635 115.234 11.3765 115.465 11.3765H125.588C125.817 11.3765 126.005 11.5614 126.005 11.7921V17.7841C126.005 18.2538 126.386 18.6341 126.856 18.6341H129.148C129.619 18.6341 130 18.2538 130 17.7841V0.955522C130 0.48581 129.619 0.105469 129.148 0.105469Z" fill="white"/>
<path d="M66.0324 5.9055L65.7058 2.87752C65.6891 2.72789 65.6088 2.59323 65.4838 2.50907L63.394 1.10636C62.9779 0.827689 63.1738 0.176832 63.6758 0.176832L69.0962 0.16748C69.4731 0.16748 69.7194 0.56398 69.5514 0.90063L66.9896 6.07382C66.7657 6.53204 66.0883 6.41047 66.0324 5.9055Z" fill="#70EAA6"/>
<path d="M66.9304 15.0348C66.8258 15.2582 66.828 15.517 66.9365 15.7386L68.4889 18.2071C68.7609 18.7627 69.5558 18.7564 69.8173 18.1967L78.1651 1.11667C78.3931 0.63004 78.0375 0.0703125 77.4977 0.0703125H74.8023C74.4862 0.0703125 74.1987 0.25315 74.0646 0.539383L66.9304 15.0348Z" fill="white"/>
<path d="M75.5845 14.9801C75.4804 15.2023 75.4826 15.4598 75.5905 15.6802L77.1123 18.1356C77.3829 18.6882 78.1739 18.682 78.4341 18.1252L86.7401 1.13569C86.967 0.651644 86.6131 0.0948819 86.0761 0.0948819H83.417C83.1025 0.0948819 82.8164 0.276751 82.683 0.561468L75.5845 14.9801Z" fill="white"/>
</svg>
