<svg width="30" height="30" viewBox="0 0 30 30" fill="none" xmlns="http://www.w3.org/2000/svg">
<path d="M29.51 13.8294L16.1596 0.479264C15.8508 0.170243 15.4386 0 14.9991 0C14.5596 0 14.1474 0.170243 13.8386 0.479264L12.8555 1.46218C12.2157 2.10267 12.2157 3.14363 12.8555 3.78314L24.0661 14.9938L12.843 26.2169C12.5343 26.5259 12.3638 26.9378 12.3638 27.3771C12.3638 27.8168 12.5343 28.2288 12.843 28.5381L13.8262 29.5207C14.1352 29.8298 14.5472 30 14.9867 30C15.4262 30 15.8384 29.8298 16.1472 29.5207L29.51 16.1584C29.8195 15.8484 29.9895 15.4345 29.9885 14.9945C29.9895 14.5528 29.8195 14.1392 29.51 13.8294Z" fill="#70EAA6"/>
<path d="M17.1462 13.8294L3.79582 0.479264C3.48704 0.170243 3.07485 0 2.63534 0C2.19584 0 1.78364 0.170243 1.47487 0.479264L0.491704 1.46218C-0.148047 2.10267 -0.148047 3.14363 0.491704 3.78314L11.7023 14.9938L0.479264 26.2169C0.170486 26.5259 0 26.9378 0 27.3771C0 27.8168 0.170486 28.2288 0.479264 28.5381L1.46243 29.5207C1.77145 29.8298 2.1834 30 2.62291 30C3.06241 30 3.47461 29.8298 3.78338 29.5207L17.1462 16.1584C17.4557 15.8484 17.6257 15.4345 17.6247 14.9945C17.6257 14.5528 17.4557 14.1392 17.1462 13.8294Z" fill="#70EAA6"/>
</svg>
